<svg width="20" height="20" viewBox="0 0 20 20" fill="none" xmlns="http://www.w3.org/2000/svg">
<circle cx="10" cy="10" r="10" fill="#313450"/>
<path d="M8.91091 11.9553H10.5991V11.7935C10.608 10.8658 10.9198 10.4329 11.6236 9.98097C12.4566 9.4529 13 8.75357 13 7.63558C13 5.9705 11.7439 5 9.9755 5C8.35857 5 7.04009 5.9039 7 7.80685H8.81737C8.8441 7.0314 9.38307 6.61751 9.96659 6.61751C10.5679 6.61751 11.0535 7.04567 11.0535 7.70695C11.0535 8.33016 10.6303 8.74405 10.0824 9.11513C9.33408 9.61941 8.91537 10.1284 8.91091 11.7935V11.9553ZM9.78842 15C10.3586 15 10.853 14.491 10.8575 13.8582C10.853 13.235 10.3586 12.726 9.78842 12.726C9.20045 12.726 8.71492 13.235 8.71938 13.8582C8.71492 14.491 9.20045 15 9.78842 15Z" fill="white"/>
</svg>
