<svg width="150" height="150" viewBox="0 0 150 150" fill="none" xmlns="http://www.w3.org/2000/svg">
<g filter="url(#filter0_d)">
<path fill-rule="evenodd" clip-rule="evenodd" d="M91 47.2872C81.0991 41.5709 68.9008 41.5709 59 47.2872C49.0992 53.0034 43 63.5675 43 75C43 86.4325 49.0992 96.9965 59 102.713C68.9008 108.429 81.0992 108.429 91 102.713C100.901 96.9965 107 86.4325 107 75C107 63.5675 100.901 53.0034 91 47.2872ZM92.5 44.6891C81.6709 38.437 68.329 38.437 57.5 44.6891C46.671 50.9412 40 62.4957 40 75C40 87.5043 46.671 99.0587 57.5 105.311C68.329 111.563 81.6709 111.563 92.5 105.311C103.329 99.0587 110 87.5043 110 75C110 62.4957 103.329 50.9412 92.5 44.6891Z" fill="#FEB12B"/>
</g>
<path fill-rule="evenodd" clip-rule="evenodd" d="M54.5 75C54.5 73.067 56.067 71.5 58 71.5L92 71.5C93.933 71.5 95.5 73.067 95.5 75C95.5 76.933 93.933 78.5 92 78.5L58 78.5C56.067 78.5 54.5 76.933 54.5 75Z" fill="white"/>
<defs>
<filter id="filter0_d" x="0" y="0" width="150" height="150" filterUnits="userSpaceOnUse" color-interpolation-filters="sRGB">
<feFlood flood-opacity="0" result="BackgroundImageFix"/>
<feColorMatrix in="SourceAlpha" type="matrix" values="0 0 0 0 0 0 0 0 0 0 0 0 0 0 0 0 0 0 127 0"/>
<feOffset/>
<feGaussianBlur stdDeviation="20"/>
<feColorMatrix type="matrix" values="0 0 0 0 0.996078 0 0 0 0 0.694118 0 0 0 0 0.168627 0 0 0 1 0"/>
<feBlend mode="normal" in2="BackgroundImageFix" result="effect1_dropShadow"/>
<feBlend mode="normal" in="SourceGraphic" in2="effect1_dropShadow" result="shape"/>
</filter>
</defs>
</svg>
