<svg width="150" height="150" viewBox="0 0 150 150" fill="none" xmlns="http://www.w3.org/2000/svg">
<g filter="url(#filter0_d)">
<path fill-rule="evenodd" clip-rule="evenodd" d="M59 47.2872C49.0992 53.0034 43 63.5675 43 75C43 86.4325 49.0992 96.9965 59 102.713C68.9008 108.429 81.0991 108.429 91 102.713C100.901 96.9965 107 86.4325 107 75C107 63.5675 100.901 53.0034 91 47.2872C81.0991 41.5709 68.9008 41.5709 59 47.2872ZM92.5 44.6891C81.6709 38.437 68.329 38.437 57.5 44.6891C46.671 50.9412 40 62.4957 40 75C40 87.5043 46.671 99.0587 57.5 105.311C68.329 111.563 81.6709 111.563 92.5 105.311C103.329 99.0587 110 87.5043 110 75C110 62.4957 103.329 50.9412 92.5 44.6891Z" fill="#FF4D4D"/>
</g>
<path fill-rule="evenodd" clip-rule="evenodd" d="M88.4186 65.4128C89.3933 64.4349 89.3907 62.852 88.4128 61.8773C87.4349 60.9026 85.8519 60.9052 84.8773 61.8831L74.9942 71.799L65.0782 61.9159C64.1003 60.9412 62.5174 60.9438 61.5427 61.9218C60.568 62.8997 60.5707 64.4826 61.5486 65.4573L71.4645 75.3404L61.5814 85.2563C60.6067 86.2342 60.6094 87.8172 61.5873 88.7919C62.5652 89.7665 64.1481 89.7639 65.1228 88.786L75.0059 78.8701L84.9218 88.7531C85.8997 89.7278 87.4826 89.7252 88.4573 88.7473C89.432 87.7693 89.4294 86.1864 88.4514 85.2117L78.5356 75.3287L88.4186 65.4128Z" fill="white"/>
<defs>
<filter id="filter0_d" x="0" y="0" width="150" height="150" filterUnits="userSpaceOnUse" color-interpolation-filters="sRGB">
<feFlood flood-opacity="0" result="BackgroundImageFix"/>
<feColorMatrix in="SourceAlpha" type="matrix" values="0 0 0 0 0 0 0 0 0 0 0 0 0 0 0 0 0 0 127 0"/>
<feOffset/>
<feGaussianBlur stdDeviation="20"/>
<feColorMatrix type="matrix" values="0 0 0 0 1 0 0 0 0 0.3 0 0 0 0 0.3 0 0 0 1 0"/>
<feBlend mode="normal" in2="BackgroundImageFix" result="effect1_dropShadow"/>
<feBlend mode="normal" in="SourceGraphic" in2="effect1_dropShadow" result="shape"/>
</filter>
</defs>
</svg>
